<svg width="40" height="40" viewBox="0 0 40 40" fill="none" xmlns="http://www.w3.org/2000/svg">
<path fill-rule="evenodd" clip-rule="evenodd" d="M40 20L20 40L0 20L20 0L40 20ZM11.5947 12C11.4371 12 11.2853 12.0623 11.1738 12.1738C11.0624 12.2853 11 12.4371 11 12.5947V14.3984C10.9983 14.4775 11.013 14.5563 11.042 14.6299C11.0711 14.7035 11.1145 14.7715 11.1699 14.8281C11.2252 14.8845 11.2914 14.9293 11.3643 14.96C11.4372 14.9906 11.5156 15.0069 11.5947 15.0068H12.3447C12.4463 14.9982 12.5488 15.0097 12.6455 15.042C12.7422 15.0742 12.8311 15.1265 12.9072 15.1943C13.179 15.47 13.1695 16.0753 13.1602 16.6621V28H17.4736V19.5205L23.957 28H28V12.6094C28 12.4521 27.9372 12.3009 27.8262 12.1895C27.7151 12.0782 27.5644 12.0151 27.4072 12.0146H24.2812C24.1236 12.0146 23.9728 12.078 23.8613 12.1895C23.7499 12.3009 23.6866 12.4518 23.6865 12.6094V20.4863L17.8135 12.7969C17.6234 12.5497 17.3791 12.3491 17.0996 12.2109C16.82 12.0728 16.512 12.0009 16.2002 12H11.5947Z" fill="#004FC1"/>
</svg>
