<svg width="40" height="40" viewBox="0 0 40 40" fill="none" xmlns="http://www.w3.org/2000/svg">
<path d="M24.8638 21.3911L16.5723 10.5438L16.4564 10.3892H9.21377V13.5302H9.69955C10.903 13.5302 11.8801 14.5073 11.8801 15.7107V29.5611H16.6551V18.5647L24.9466 29.4121L25.0625 29.5667H29.6388V10.3892H24.8638V21.3911Z" fill="#1E58F2"/>
<path d="M20 0C8.9539 0 0 8.95391 0 20C0 31.0461 8.9539 40 20 40C31.0461 40 40 31.0461 40 20C40 8.95391 31.0461 0 20 0ZM20 39.172C9.41761 39.172 0.833563 30.5879 0.833563 20C0.833563 9.41209 9.41761 0.833563 20 0.833563C30.5824 0.833563 39.1664 9.41761 39.1664 20C39.1664 30.5824 30.5824 39.1664 20 39.1664" fill="#1E58F2"/>
</svg>
