<svg width="40" height="40" viewBox="0 0 400 400" fill="none" xmlns="http://www.w3.org/2000/svg">
<path fill-rule="evenodd" clip-rule="evenodd" d="M400 200L200 400L0 200L200 0L400 200ZM115.947 120C114.371 120 112.853 120.623 111.738 121.738C110.624 122.853 110 124.371 110 125.947V143.984C109.983 144.775 110.13 145.563 110.42 146.299C110.711 147.035 111.145 147.715 111.699 148.281C112.252 148.845 112.914 149.293 113.643 149.6C114.372 149.906 115.156 150.069 115.947 150.068H123.447C124.463 149.982 125.488 150.097 126.455 150.42C127.422 150.742 128.311 151.265 129.072 151.943C131.79 154.7 131.695 160.753 131.602 166.621V280H174.736V195.205L239.57 280H280V126.094C280 124.521 279.372 123.009 278.262 121.895C277.151 120.782 275.644 120.151 274.072 120.146H242.812C241.236 120.146 239.728 120.78 238.613 121.895C237.499 123.009 236.866 124.518 236.865 126.094V204.863L178.135 127.969C176.234 125.497 173.791 123.491 170.996 122.109C168.2 120.728 165.12 120.009 162.002 120H115.947Z" fill="#1E58F2"/>
</svg>
